<mxfile host="app.diagrams.net" agent="Mozilla/5.0 (Windows NT 10.0; Win64; x64) AppleWebKit/537.36 (KHTML, like Gecko) Chrome/135.0.0.0 Safari/537.36" version="26.2.12">
  <diagram name="Page-1" id="cTpus7Wuwab5PH7f_lxD">
    <mxGraphModel dx="763" dy="347" grid="1" gridSize="10" guides="1" tooltips="1" connect="1" arrows="1" fold="1" page="1" pageScale="1" pageWidth="827" pageHeight="1169" math="0" shadow="0">
      <root>
        <mxCell id="0" />
        <mxCell id="1" parent="0" />
        <mxCell id="2DP7c2VmXSA7MMOB2HrA-1" value="Coach" style="shape=umlActor;verticalLabelPosition=bottom;verticalAlign=top;html=1;outlineConnect=0;" parent="1" vertex="1">
          <mxGeometry x="178" y="90" width="20" height="40" as="geometry" />
        </mxCell>
        <mxCell id="2DP7c2VmXSA7MMOB2HrA-4" value="" style="swimlane;startSize=0;" parent="1" vertex="1">
          <mxGeometry x="318" y="20" width="330" height="220" as="geometry" />
        </mxCell>
        <mxCell id="2DP7c2VmXSA7MMOB2HrA-5" value="Ajout lister modifier module" style="ellipse;whiteSpace=wrap;html=1;fontSize=6;" parent="2DP7c2VmXSA7MMOB2HrA-4" vertex="1">
          <mxGeometry x="20" y="20" width="90" height="30" as="geometry" />
        </mxCell>
        <mxCell id="2DP7c2VmXSA7MMOB2HrA-6" value="Ajouter une note/module aux apprenants" style="ellipse;whiteSpace=wrap;html=1;fontSize=6;" parent="2DP7c2VmXSA7MMOB2HrA-4" vertex="1">
          <mxGeometry x="20" y="70" width="90" height="30" as="geometry" />
        </mxCell>
        <mxCell id="2DP7c2VmXSA7MMOB2HrA-7" value="Gestion des notes" style="ellipse;whiteSpace=wrap;html=1;fontSize=6;" parent="2DP7c2VmXSA7MMOB2HrA-4" vertex="1">
          <mxGeometry x="20" y="120" width="90" height="30" as="geometry" />
        </mxCell>
        <mxCell id="2DP7c2VmXSA7MMOB2HrA-8" value="&lt;span style=&quot;line-height: 115%;&quot;&gt;Exporter la liste des notes de ses apprenants / module&lt;/span&gt;" style="ellipse;whiteSpace=wrap;html=1;fontSize=6;" parent="2DP7c2VmXSA7MMOB2HrA-4" vertex="1">
          <mxGeometry x="20" y="170" width="90" height="40" as="geometry" />
        </mxCell>
        <mxCell id="2DP7c2VmXSA7MMOB2HrA-13" value="S&#39;authentifier" style="ellipse;whiteSpace=wrap;html=1;fontSize=8;" parent="2DP7c2VmXSA7MMOB2HrA-4" vertex="1">
          <mxGeometry x="210" y="95" width="70" height="30" as="geometry" />
        </mxCell>
        <mxCell id="2DP7c2VmXSA7MMOB2HrA-14" value="" style="endArrow=none;dashed=1;html=1;dashPattern=1 3;strokeWidth=2;rounded=0;fontSize=6;" parent="2DP7c2VmXSA7MMOB2HrA-4" source="2DP7c2VmXSA7MMOB2HrA-5" target="2DP7c2VmXSA7MMOB2HrA-13" edge="1">
          <mxGeometry width="50" height="50" relative="1" as="geometry">
            <mxPoint x="130" y="150" as="sourcePoint" />
            <mxPoint x="180" y="100" as="targetPoint" />
          </mxGeometry>
        </mxCell>
        <mxCell id="2DP7c2VmXSA7MMOB2HrA-17" value="include" style="edgeLabel;html=1;align=center;verticalAlign=middle;resizable=0;points=[];" parent="2DP7c2VmXSA7MMOB2HrA-14" vertex="1" connectable="0">
          <mxGeometry x="-0.0557" y="1" relative="1" as="geometry">
            <mxPoint as="offset" />
          </mxGeometry>
        </mxCell>
        <mxCell id="2DP7c2VmXSA7MMOB2HrA-18" value="" style="endArrow=none;dashed=1;html=1;dashPattern=1 3;strokeWidth=2;rounded=0;entryX=-0.029;entryY=0.383;entryDx=0;entryDy=0;entryPerimeter=0;fontSize=6;" parent="2DP7c2VmXSA7MMOB2HrA-4" source="2DP7c2VmXSA7MMOB2HrA-6" target="2DP7c2VmXSA7MMOB2HrA-13" edge="1">
          <mxGeometry width="50" height="50" relative="1" as="geometry">
            <mxPoint x="98" y="58" as="sourcePoint" />
            <mxPoint x="190" y="110" as="targetPoint" />
          </mxGeometry>
        </mxCell>
        <mxCell id="2DP7c2VmXSA7MMOB2HrA-19" value="include" style="edgeLabel;html=1;align=center;verticalAlign=middle;resizable=0;points=[];" parent="2DP7c2VmXSA7MMOB2HrA-18" vertex="1" connectable="0">
          <mxGeometry x="-0.0557" y="1" relative="1" as="geometry">
            <mxPoint as="offset" />
          </mxGeometry>
        </mxCell>
        <mxCell id="2DP7c2VmXSA7MMOB2HrA-20" value="" style="endArrow=none;dashed=1;html=1;dashPattern=1 3;strokeWidth=2;rounded=0;exitX=1.002;exitY=0.663;exitDx=0;exitDy=0;exitPerimeter=0;fontSize=6;" parent="2DP7c2VmXSA7MMOB2HrA-4" source="2DP7c2VmXSA7MMOB2HrA-7" target="2DP7c2VmXSA7MMOB2HrA-13" edge="1">
          <mxGeometry width="50" height="50" relative="1" as="geometry">
            <mxPoint x="114" y="103" as="sourcePoint" />
            <mxPoint x="200" y="120" as="targetPoint" />
          </mxGeometry>
        </mxCell>
        <mxCell id="2DP7c2VmXSA7MMOB2HrA-21" value="include" style="edgeLabel;html=1;align=center;verticalAlign=middle;resizable=0;points=[];" parent="2DP7c2VmXSA7MMOB2HrA-20" vertex="1" connectable="0">
          <mxGeometry x="-0.0557" y="1" relative="1" as="geometry">
            <mxPoint as="offset" />
          </mxGeometry>
        </mxCell>
        <mxCell id="2DP7c2VmXSA7MMOB2HrA-22" value="" style="endArrow=none;dashed=1;html=1;dashPattern=1 3;strokeWidth=2;rounded=0;exitX=0.989;exitY=0.299;exitDx=0;exitDy=0;exitPerimeter=0;entryX=0.253;entryY=0.951;entryDx=0;entryDy=0;entryPerimeter=0;fontSize=6;" parent="2DP7c2VmXSA7MMOB2HrA-4" source="2DP7c2VmXSA7MMOB2HrA-8" target="2DP7c2VmXSA7MMOB2HrA-13" edge="1">
          <mxGeometry width="50" height="50" relative="1" as="geometry">
            <mxPoint x="110" y="140" as="sourcePoint" />
            <mxPoint x="210" y="130" as="targetPoint" />
          </mxGeometry>
        </mxCell>
        <mxCell id="2DP7c2VmXSA7MMOB2HrA-23" value="include" style="edgeLabel;html=1;align=center;verticalAlign=middle;resizable=0;points=[];" parent="2DP7c2VmXSA7MMOB2HrA-22" vertex="1" connectable="0">
          <mxGeometry x="-0.0557" y="1" relative="1" as="geometry">
            <mxPoint as="offset" />
          </mxGeometry>
        </mxCell>
        <mxCell id="2DP7c2VmXSA7MMOB2HrA-9" value="" style="endArrow=none;html=1;rounded=0;entryX=0.005;entryY=0.709;entryDx=0;entryDy=0;entryPerimeter=0;" parent="1" target="2DP7c2VmXSA7MMOB2HrA-5" edge="1">
          <mxGeometry width="50" height="50" relative="1" as="geometry">
            <mxPoint x="208" y="120" as="sourcePoint" />
            <mxPoint x="298" y="150" as="targetPoint" />
            <Array as="points">
              <mxPoint x="268" y="90" />
            </Array>
          </mxGeometry>
        </mxCell>
        <mxCell id="2DP7c2VmXSA7MMOB2HrA-10" value="" style="endArrow=none;html=1;rounded=0;entryX=0;entryY=0.5;entryDx=0;entryDy=0;" parent="1" edge="1">
          <mxGeometry width="50" height="50" relative="1" as="geometry">
            <mxPoint x="205" y="130" as="sourcePoint" />
            <mxPoint x="325" y="105" as="targetPoint" />
            <Array as="points" />
          </mxGeometry>
        </mxCell>
        <mxCell id="2DP7c2VmXSA7MMOB2HrA-11" value="" style="endArrow=none;html=1;rounded=0;entryX=0;entryY=0.333;entryDx=0;entryDy=0;entryPerimeter=0;" parent="1" edge="1">
          <mxGeometry width="50" height="50" relative="1" as="geometry">
            <mxPoint x="215" y="140" as="sourcePoint" />
            <mxPoint x="325" y="149.99" as="targetPoint" />
            <Array as="points" />
          </mxGeometry>
        </mxCell>
        <mxCell id="2DP7c2VmXSA7MMOB2HrA-12" value="" style="endArrow=none;html=1;rounded=0;entryX=0.105;entryY=0.231;entryDx=0;entryDy=0;entryPerimeter=0;" parent="1" edge="1">
          <mxGeometry width="50" height="50" relative="1" as="geometry">
            <mxPoint x="217" y="150" as="sourcePoint" />
            <mxPoint x="326.45000000000005" y="199.24000000000012" as="targetPoint" />
            <Array as="points" />
          </mxGeometry>
        </mxCell>
        <mxCell id="2DP7c2VmXSA7MMOB2HrA-45" value="Vigil" style="shape=umlActor;verticalLabelPosition=bottom;verticalAlign=top;html=1;outlineConnect=0;" parent="1" vertex="1">
          <mxGeometry x="178" y="330" width="20" height="40" as="geometry" />
        </mxCell>
        <mxCell id="2DP7c2VmXSA7MMOB2HrA-46" value="" style="swimlane;startSize=0;" parent="1" vertex="1">
          <mxGeometry x="318" y="260" width="330" height="220" as="geometry" />
        </mxCell>
        <mxCell id="2DP7c2VmXSA7MMOB2HrA-47" value="Lister et Marquer présence (qr-code)" style="ellipse;whiteSpace=wrap;html=1;fontSize=5;" parent="2DP7c2VmXSA7MMOB2HrA-46" vertex="1">
          <mxGeometry x="20" y="20" width="90" height="30" as="geometry" />
        </mxCell>
        <mxCell id="2DP7c2VmXSA7MMOB2HrA-48" value="Voir les statistiques globales de présences du jour" style="ellipse;whiteSpace=wrap;html=1;fontSize=5;" parent="2DP7c2VmXSA7MMOB2HrA-46" vertex="1">
          <mxGeometry x="20" y="70" width="90" height="30" as="geometry" />
        </mxCell>
        <mxCell id="2DP7c2VmXSA7MMOB2HrA-50" value="&lt;span style=&quot;line-height: 115%;&quot;&gt;Exporter la liste des présences du jour&lt;/span&gt;" style="ellipse;whiteSpace=wrap;html=1;fontSize=5;" parent="2DP7c2VmXSA7MMOB2HrA-46" vertex="1">
          <mxGeometry x="20" y="170" width="90" height="29" as="geometry" />
        </mxCell>
        <mxCell id="2DP7c2VmXSA7MMOB2HrA-51" value="S&#39;authentifier" style="ellipse;whiteSpace=wrap;html=1;fontSize=8;" parent="2DP7c2VmXSA7MMOB2HrA-46" vertex="1">
          <mxGeometry x="210" y="95" width="70" height="30" as="geometry" />
        </mxCell>
        <mxCell id="2DP7c2VmXSA7MMOB2HrA-52" value="" style="endArrow=none;dashed=1;html=1;dashPattern=1 3;strokeWidth=2;rounded=0;fontSize=6;" parent="2DP7c2VmXSA7MMOB2HrA-46" source="2DP7c2VmXSA7MMOB2HrA-47" target="2DP7c2VmXSA7MMOB2HrA-51" edge="1">
          <mxGeometry width="50" height="50" relative="1" as="geometry">
            <mxPoint x="130" y="150" as="sourcePoint" />
            <mxPoint x="180" y="100" as="targetPoint" />
          </mxGeometry>
        </mxCell>
        <mxCell id="2DP7c2VmXSA7MMOB2HrA-53" value="include" style="edgeLabel;html=1;align=center;verticalAlign=middle;resizable=0;points=[];" parent="2DP7c2VmXSA7MMOB2HrA-52" vertex="1" connectable="0">
          <mxGeometry x="-0.0557" y="1" relative="1" as="geometry">
            <mxPoint as="offset" />
          </mxGeometry>
        </mxCell>
        <mxCell id="2DP7c2VmXSA7MMOB2HrA-54" value="" style="endArrow=none;dashed=1;html=1;dashPattern=1 3;strokeWidth=2;rounded=0;entryX=-0.029;entryY=0.383;entryDx=0;entryDy=0;entryPerimeter=0;fontSize=6;" parent="2DP7c2VmXSA7MMOB2HrA-46" source="2DP7c2VmXSA7MMOB2HrA-48" target="2DP7c2VmXSA7MMOB2HrA-51" edge="1">
          <mxGeometry width="50" height="50" relative="1" as="geometry">
            <mxPoint x="98" y="58" as="sourcePoint" />
            <mxPoint x="190" y="110" as="targetPoint" />
          </mxGeometry>
        </mxCell>
        <mxCell id="2DP7c2VmXSA7MMOB2HrA-55" value="include" style="edgeLabel;html=1;align=center;verticalAlign=middle;resizable=0;points=[];" parent="2DP7c2VmXSA7MMOB2HrA-54" vertex="1" connectable="0">
          <mxGeometry x="-0.0557" y="1" relative="1" as="geometry">
            <mxPoint as="offset" />
          </mxGeometry>
        </mxCell>
        <mxCell id="2DP7c2VmXSA7MMOB2HrA-58" value="" style="endArrow=none;dashed=1;html=1;dashPattern=1 3;strokeWidth=2;rounded=0;exitX=0.989;exitY=0.299;exitDx=0;exitDy=0;exitPerimeter=0;entryX=0.253;entryY=0.951;entryDx=0;entryDy=0;entryPerimeter=0;fontSize=6;" parent="2DP7c2VmXSA7MMOB2HrA-46" source="2DP7c2VmXSA7MMOB2HrA-50" target="2DP7c2VmXSA7MMOB2HrA-51" edge="1">
          <mxGeometry width="50" height="50" relative="1" as="geometry">
            <mxPoint x="110" y="140" as="sourcePoint" />
            <mxPoint x="210" y="130" as="targetPoint" />
          </mxGeometry>
        </mxCell>
        <mxCell id="2DP7c2VmXSA7MMOB2HrA-59" value="include" style="edgeLabel;html=1;align=center;verticalAlign=middle;resizable=0;points=[];" parent="2DP7c2VmXSA7MMOB2HrA-58" vertex="1" connectable="0">
          <mxGeometry x="-0.0557" y="1" relative="1" as="geometry">
            <mxPoint as="offset" />
          </mxGeometry>
        </mxCell>
        <mxCell id="2DP7c2VmXSA7MMOB2HrA-60" value="" style="endArrow=none;html=1;rounded=0;entryX=0.005;entryY=0.709;entryDx=0;entryDy=0;entryPerimeter=0;" parent="1" target="2DP7c2VmXSA7MMOB2HrA-47" edge="1">
          <mxGeometry width="50" height="50" relative="1" as="geometry">
            <mxPoint x="208" y="360" as="sourcePoint" />
            <mxPoint x="298" y="390" as="targetPoint" />
            <Array as="points">
              <mxPoint x="268" y="330" />
            </Array>
          </mxGeometry>
        </mxCell>
        <mxCell id="2DP7c2VmXSA7MMOB2HrA-61" value="" style="endArrow=none;html=1;rounded=0;entryX=0;entryY=0.5;entryDx=0;entryDy=0;" parent="1" edge="1">
          <mxGeometry width="50" height="50" relative="1" as="geometry">
            <mxPoint x="205" y="370" as="sourcePoint" />
            <mxPoint x="325" y="345" as="targetPoint" />
            <Array as="points" />
          </mxGeometry>
        </mxCell>
        <mxCell id="2DP7c2VmXSA7MMOB2HrA-63" value="" style="endArrow=none;html=1;rounded=0;entryX=0.105;entryY=0.231;entryDx=0;entryDy=0;entryPerimeter=0;" parent="1" edge="1">
          <mxGeometry width="50" height="50" relative="1" as="geometry">
            <mxPoint x="217" y="390" as="sourcePoint" />
            <mxPoint x="326.45000000000005" y="439.2400000000001" as="targetPoint" />
            <Array as="points" />
          </mxGeometry>
        </mxCell>
        <mxCell id="2DP7c2VmXSA7MMOB2HrA-64" value="Restaurateur(rice)" style="shape=umlActor;verticalLabelPosition=bottom;verticalAlign=top;html=1;outlineConnect=0;fontSize=10;" parent="1" vertex="1">
          <mxGeometry x="170" y="590" width="20" height="40" as="geometry" />
        </mxCell>
        <mxCell id="2DP7c2VmXSA7MMOB2HrA-65" value="" style="swimlane;startSize=0;" parent="1" vertex="1">
          <mxGeometry x="318" y="490" width="304" height="240" as="geometry" />
        </mxCell>
        <mxCell id="2DP7c2VmXSA7MMOB2HrA-66" value="Gestion Pointage Restauration" style="ellipse;whiteSpace=wrap;html=1;fontSize=7;" parent="2DP7c2VmXSA7MMOB2HrA-65" vertex="1">
          <mxGeometry x="15.5" y="105" width="90" height="30" as="geometry" />
        </mxCell>
        <mxCell id="2DP7c2VmXSA7MMOB2HrA-67" value="Voir les statistiques globales de pointages du jour" style="ellipse;whiteSpace=wrap;html=1;fontSize=5;" parent="2DP7c2VmXSA7MMOB2HrA-65" vertex="1">
          <mxGeometry x="15.5" y="180" width="90" height="30" as="geometry" />
        </mxCell>
        <mxCell id="2DP7c2VmXSA7MMOB2HrA-68" value="&lt;span style=&quot;line-height: 115%;&quot;&gt;Exporter la liste du jour des apprenants servis aux repas&lt;/span&gt;" style="ellipse;whiteSpace=wrap;html=1;fontSize=5;" parent="2DP7c2VmXSA7MMOB2HrA-65" vertex="1">
          <mxGeometry x="192" y="40" width="72" height="29" as="geometry" />
        </mxCell>
        <mxCell id="2DP7c2VmXSA7MMOB2HrA-69" value="S&#39;authentifier" style="ellipse;whiteSpace=wrap;html=1;fontSize=8;" parent="2DP7c2VmXSA7MMOB2HrA-65" vertex="1">
          <mxGeometry x="222" y="130" width="70" height="30" as="geometry" />
        </mxCell>
        <mxCell id="2DP7c2VmXSA7MMOB2HrA-114" value="&lt;span style=&quot;line-height: 115%;&quot;&gt;Marquer servis (scan qrcode)&lt;/span&gt;" style="ellipse;whiteSpace=wrap;html=1;fontSize=5;" parent="2DP7c2VmXSA7MMOB2HrA-65" vertex="1">
          <mxGeometry x="115" y="20" width="77" height="20" as="geometry" />
        </mxCell>
        <mxCell id="2DP7c2VmXSA7MMOB2HrA-115" value="" style="endArrow=classic;dashed=1;html=1;strokeWidth=1;rounded=0;fontSize=3;endFill=1;exitX=0;exitY=0;exitDx=0;exitDy=0;entryX=0;entryY=1;entryDx=0;entryDy=0;" parent="2DP7c2VmXSA7MMOB2HrA-65" source="2DP7c2VmXSA7MMOB2HrA-66" target="2DP7c2VmXSA7MMOB2HrA-114" edge="1">
          <mxGeometry width="50" height="50" relative="1" as="geometry">
            <mxPoint x="96" y="40" as="sourcePoint" />
            <mxPoint x="289" y="128" as="targetPoint" />
          </mxGeometry>
        </mxCell>
        <mxCell id="2DP7c2VmXSA7MMOB2HrA-116" value="&lt;font style=&quot;font-size: 6px;&quot;&gt;extend&lt;/font&gt;" style="edgeLabel;html=1;align=center;verticalAlign=middle;resizable=0;points=[];" parent="2DP7c2VmXSA7MMOB2HrA-115" vertex="1" connectable="0">
          <mxGeometry x="-0.0557" y="1" relative="1" as="geometry">
            <mxPoint y="-1" as="offset" />
          </mxGeometry>
        </mxCell>
        <mxCell id="2DP7c2VmXSA7MMOB2HrA-118" value="" style="endArrow=classic;dashed=1;html=1;strokeWidth=1;rounded=0;fontSize=3;endFill=1;exitX=0.5;exitY=0;exitDx=0;exitDy=0;" parent="2DP7c2VmXSA7MMOB2HrA-65" source="2DP7c2VmXSA7MMOB2HrA-66" target="2DP7c2VmXSA7MMOB2HrA-68" edge="1">
          <mxGeometry width="50" height="50" relative="1" as="geometry">
            <mxPoint x="45" y="99" as="sourcePoint" />
            <mxPoint x="50" y="47" as="targetPoint" />
          </mxGeometry>
        </mxCell>
        <mxCell id="2DP7c2VmXSA7MMOB2HrA-119" value="&lt;font style=&quot;font-size: 6px;&quot;&gt;extend&lt;/font&gt;" style="edgeLabel;html=1;align=center;verticalAlign=middle;resizable=0;points=[];" parent="2DP7c2VmXSA7MMOB2HrA-118" vertex="1" connectable="0">
          <mxGeometry x="-0.0557" y="1" relative="1" as="geometry">
            <mxPoint y="-1" as="offset" />
          </mxGeometry>
        </mxCell>
        <mxCell id="2DP7c2VmXSA7MMOB2HrA-120" value="" style="endArrow=classic;dashed=1;html=1;strokeWidth=1;rounded=0;fontSize=6;endFill=1;exitX=1;exitY=0.5;exitDx=0;exitDy=0;entryX=0;entryY=0.333;entryDx=0;entryDy=0;entryPerimeter=0;" parent="2DP7c2VmXSA7MMOB2HrA-65" source="2DP7c2VmXSA7MMOB2HrA-66" target="2DP7c2VmXSA7MMOB2HrA-69" edge="1">
          <mxGeometry width="50" height="50" relative="1" as="geometry">
            <mxPoint x="96" y="189" as="sourcePoint" />
            <mxPoint x="256" y="240" as="targetPoint" />
          </mxGeometry>
        </mxCell>
        <mxCell id="2DP7c2VmXSA7MMOB2HrA-121" value="include" style="edgeLabel;html=1;align=center;verticalAlign=middle;resizable=0;points=[];fontSize=8;" parent="2DP7c2VmXSA7MMOB2HrA-120" vertex="1" connectable="0">
          <mxGeometry x="-0.0557" y="1" relative="1" as="geometry">
            <mxPoint y="-1" as="offset" />
          </mxGeometry>
        </mxCell>
        <mxCell id="2DP7c2VmXSA7MMOB2HrA-122" value="" style="endArrow=classic;dashed=1;html=1;strokeWidth=1;rounded=0;fontSize=6;endFill=1;exitX=1;exitY=0.5;exitDx=0;exitDy=0;entryX=-0.018;entryY=0.7;entryDx=0;entryDy=0;entryPerimeter=0;" parent="2DP7c2VmXSA7MMOB2HrA-65" source="2DP7c2VmXSA7MMOB2HrA-67" target="2DP7c2VmXSA7MMOB2HrA-69" edge="1">
          <mxGeometry width="50" height="50" relative="1" as="geometry">
            <mxPoint x="122" y="155" as="sourcePoint" />
            <mxPoint x="232" y="140" as="targetPoint" />
          </mxGeometry>
        </mxCell>
        <mxCell id="2DP7c2VmXSA7MMOB2HrA-123" value="include" style="edgeLabel;html=1;align=center;verticalAlign=middle;resizable=0;points=[];fontSize=8;" parent="2DP7c2VmXSA7MMOB2HrA-122" vertex="1" connectable="0">
          <mxGeometry x="-0.0557" y="1" relative="1" as="geometry">
            <mxPoint y="-1" as="offset" />
          </mxGeometry>
        </mxCell>
        <mxCell id="2DP7c2VmXSA7MMOB2HrA-76" value="" style="endArrow=none;html=1;rounded=0;entryX=0.005;entryY=0.709;entryDx=0;entryDy=0;entryPerimeter=0;exitX=1;exitY=0.3333333333333333;exitDx=0;exitDy=0;exitPerimeter=0;" parent="1" source="2DP7c2VmXSA7MMOB2HrA-64" target="2DP7c2VmXSA7MMOB2HrA-66" edge="1">
          <mxGeometry width="50" height="50" relative="1" as="geometry">
            <mxPoint x="208" y="600" as="sourcePoint" />
            <mxPoint x="298" y="630" as="targetPoint" />
            <Array as="points" />
          </mxGeometry>
        </mxCell>
        <mxCell id="2DP7c2VmXSA7MMOB2HrA-77" value="" style="endArrow=none;html=1;rounded=0;entryX=0.011;entryY=0.333;entryDx=0;entryDy=0;entryPerimeter=0;" parent="1" source="2DP7c2VmXSA7MMOB2HrA-64" target="2DP7c2VmXSA7MMOB2HrA-67" edge="1">
          <mxGeometry width="50" height="50" relative="1" as="geometry">
            <mxPoint x="205" y="610" as="sourcePoint" />
            <mxPoint x="329" y="620" as="targetPoint" />
            <Array as="points" />
          </mxGeometry>
        </mxCell>
        <mxCell id="2DP7c2VmXSA7MMOB2HrA-79" value="Apprenant" style="shape=umlActor;verticalLabelPosition=bottom;verticalAlign=top;html=1;outlineConnect=0;fontSize=10;" parent="1" vertex="1">
          <mxGeometry x="178" y="860" width="20" height="40" as="geometry" />
        </mxCell>
        <mxCell id="2DP7c2VmXSA7MMOB2HrA-80" value="" style="swimlane;startSize=0;fontSize=16;" parent="1" vertex="1">
          <mxGeometry x="300" y="760" width="360" height="320" as="geometry" />
        </mxCell>
        <mxCell id="2DP7c2VmXSA7MMOB2HrA-81" value="&lt;span style=&quot;line-height: 115%;&quot;&gt;Gestion du profil&lt;/span&gt;" style="ellipse;whiteSpace=wrap;html=1;fontSize=7;" parent="2DP7c2VmXSA7MMOB2HrA-80" vertex="1">
          <mxGeometry x="18" y="20" width="90" height="30" as="geometry" />
        </mxCell>
        <mxCell id="2DP7c2VmXSA7MMOB2HrA-82" value="&lt;span style=&quot;font-family: &amp;quot;Times New Roman&amp;quot;, serif;&quot;&gt;Voir&amp;nbsp;&lt;/span&gt;&lt;span style=&quot;font-family: &amp;quot;Times New Roman&amp;quot;, serif;&quot;&gt;sa carte d’apprenant (Qr-code pour pointage)&lt;/span&gt;" style="ellipse;whiteSpace=wrap;html=1;fontSize=7;" parent="2DP7c2VmXSA7MMOB2HrA-80" vertex="1">
          <mxGeometry x="15" y="60" width="114" height="40" as="geometry" />
        </mxCell>
        <mxCell id="2DP7c2VmXSA7MMOB2HrA-83" value="&lt;span style=&quot;font-family: &amp;quot;Times New Roman&amp;quot;, serif; text-align: justify; background-color: transparent; color: light-dark(rgb(0, 0, 0), rgb(255, 255, 255));&quot;&gt;Lister ses présences et&lt;br&gt;     justifier ses absences&lt;/span&gt;" style="ellipse;whiteSpace=wrap;html=1;fontSize=7;" parent="2DP7c2VmXSA7MMOB2HrA-80" vertex="1">
          <mxGeometry x="15" y="160" width="99" height="29.5" as="geometry" />
        </mxCell>
        <mxCell id="2DP7c2VmXSA7MMOB2HrA-84" value="S&#39;authentifier" style="ellipse;whiteSpace=wrap;html=1;fontSize=8;" parent="2DP7c2VmXSA7MMOB2HrA-80" vertex="1">
          <mxGeometry x="280" y="100" width="70" height="30" as="geometry" />
        </mxCell>
        <mxCell id="2DP7c2VmXSA7MMOB2HrA-85" value="" style="endArrow=classic;dashed=1;html=1;strokeWidth=1;rounded=0;fontSize=6;endFill=1;" parent="2DP7c2VmXSA7MMOB2HrA-80" source="2DP7c2VmXSA7MMOB2HrA-81" target="2DP7c2VmXSA7MMOB2HrA-84" edge="1">
          <mxGeometry width="50" height="50" relative="1" as="geometry">
            <mxPoint x="130" y="150" as="sourcePoint" />
            <mxPoint x="180" y="100" as="targetPoint" />
          </mxGeometry>
        </mxCell>
        <mxCell id="2DP7c2VmXSA7MMOB2HrA-86" value="include" style="edgeLabel;html=1;align=center;verticalAlign=middle;resizable=0;points=[];fontSize=8;" parent="2DP7c2VmXSA7MMOB2HrA-85" vertex="1" connectable="0">
          <mxGeometry x="-0.0557" y="1" relative="1" as="geometry">
            <mxPoint y="-1" as="offset" />
          </mxGeometry>
        </mxCell>
        <mxCell id="2DP7c2VmXSA7MMOB2HrA-95" value="" style="endArrow=classic;dashed=1;html=1;strokeWidth=1;rounded=0;fontSize=6;endFill=1;exitX=0.944;exitY=0.693;exitDx=0;exitDy=0;exitPerimeter=0;" parent="2DP7c2VmXSA7MMOB2HrA-80" source="2DP7c2VmXSA7MMOB2HrA-82" target="2DP7c2VmXSA7MMOB2HrA-84" edge="1">
          <mxGeometry width="50" height="50" relative="1" as="geometry">
            <mxPoint x="112" y="94" as="sourcePoint" />
            <mxPoint x="256" y="128" as="targetPoint" />
          </mxGeometry>
        </mxCell>
        <mxCell id="2DP7c2VmXSA7MMOB2HrA-96" value="include" style="edgeLabel;html=1;align=center;verticalAlign=middle;resizable=0;points=[];fontSize=8;" parent="2DP7c2VmXSA7MMOB2HrA-95" vertex="1" connectable="0">
          <mxGeometry x="-0.0557" y="1" relative="1" as="geometry">
            <mxPoint y="-1" as="offset" />
          </mxGeometry>
        </mxCell>
        <mxCell id="2DP7c2VmXSA7MMOB2HrA-97" value="" style="endArrow=classic;dashed=1;html=1;strokeWidth=1;rounded=0;fontSize=6;endFill=1;exitX=1;exitY=0.5;exitDx=0;exitDy=0;entryX=0;entryY=0.667;entryDx=0;entryDy=0;entryPerimeter=0;" parent="2DP7c2VmXSA7MMOB2HrA-80" source="2DP7c2VmXSA7MMOB2HrA-83" target="2DP7c2VmXSA7MMOB2HrA-84" edge="1">
          <mxGeometry width="50" height="50" relative="1" as="geometry">
            <mxPoint x="106" y="156" as="sourcePoint" />
            <mxPoint x="253" y="139" as="targetPoint" />
          </mxGeometry>
        </mxCell>
        <mxCell id="2DP7c2VmXSA7MMOB2HrA-98" value="include" style="edgeLabel;html=1;align=center;verticalAlign=middle;resizable=0;points=[];fontSize=8;" parent="2DP7c2VmXSA7MMOB2HrA-97" vertex="1" connectable="0">
          <mxGeometry x="-0.0557" y="1" relative="1" as="geometry">
            <mxPoint y="-1" as="offset" />
          </mxGeometry>
        </mxCell>
        <mxCell id="2DP7c2VmXSA7MMOB2HrA-99" value="&lt;span style=&quot;line-height: 115%;&quot;&gt;Lister modifier&lt;/span&gt;" style="ellipse;whiteSpace=wrap;html=1;fontSize=7;" parent="2DP7c2VmXSA7MMOB2HrA-80" vertex="1">
          <mxGeometry x="200" y="10" width="78" height="20" as="geometry" />
        </mxCell>
        <mxCell id="2DP7c2VmXSA7MMOB2HrA-101" value="" style="endArrow=classic;dashed=1;html=1;strokeWidth=1;rounded=0;fontSize=3;endFill=1;exitX=0;exitY=0.5;exitDx=0;exitDy=0;entryX=1;entryY=0;entryDx=0;entryDy=0;" parent="2DP7c2VmXSA7MMOB2HrA-80" source="2DP7c2VmXSA7MMOB2HrA-99" target="2DP7c2VmXSA7MMOB2HrA-81" edge="1">
          <mxGeometry width="50" height="50" relative="1" as="geometry">
            <mxPoint x="112" y="94" as="sourcePoint" />
            <mxPoint x="256" y="128" as="targetPoint" />
          </mxGeometry>
        </mxCell>
        <mxCell id="2DP7c2VmXSA7MMOB2HrA-102" value="&lt;font style=&quot;font-size: 6px;&quot;&gt;extend&lt;/font&gt;" style="edgeLabel;html=1;align=center;verticalAlign=middle;resizable=0;points=[];" parent="2DP7c2VmXSA7MMOB2HrA-101" vertex="1" connectable="0">
          <mxGeometry x="-0.0557" y="1" relative="1" as="geometry">
            <mxPoint y="-1" as="offset" />
          </mxGeometry>
        </mxCell>
        <mxCell id="2DP7c2VmXSA7MMOB2HrA-106" value="&lt;span style=&quot;font-family: &amp;quot;Times New Roman&amp;quot;, serif; text-align: justify; background-color: transparent; color: light-dark(rgb(0, 0, 0), rgb(255, 255, 255));&quot;&gt;Lister ses notes pour chaque module&lt;/span&gt;" style="ellipse;whiteSpace=wrap;html=1;fontSize=7;" parent="2DP7c2VmXSA7MMOB2HrA-80" vertex="1">
          <mxGeometry x="44.75" y="200" width="99.5" height="39" as="geometry" />
        </mxCell>
        <mxCell id="2DP7c2VmXSA7MMOB2HrA-108" value="" style="endArrow=classic;dashed=1;html=1;strokeWidth=1;rounded=0;fontSize=6;endFill=1;entryX=0.219;entryY=0.973;entryDx=0;entryDy=0;entryPerimeter=0;" parent="2DP7c2VmXSA7MMOB2HrA-80" source="2DP7c2VmXSA7MMOB2HrA-106" target="2DP7c2VmXSA7MMOB2HrA-84" edge="1">
          <mxGeometry width="50" height="50" relative="1" as="geometry">
            <mxPoint x="111" y="215" as="sourcePoint" />
            <mxPoint x="252" y="140" as="targetPoint" />
          </mxGeometry>
        </mxCell>
        <mxCell id="2DP7c2VmXSA7MMOB2HrA-109" value="include" style="edgeLabel;html=1;align=center;verticalAlign=middle;resizable=0;points=[];fontSize=8;" parent="2DP7c2VmXSA7MMOB2HrA-108" vertex="1" connectable="0">
          <mxGeometry x="-0.0557" y="1" relative="1" as="geometry">
            <mxPoint y="-1" as="offset" />
          </mxGeometry>
        </mxCell>
        <mxCell id="2DP7c2VmXSA7MMOB2HrA-110" value="&lt;span style=&quot;font-family: &amp;quot;Times New Roman&amp;quot;, serif; text-align: justify; background-color: transparent; color: light-dark(rgb(0, 0, 0), rgb(255, 255, 255));&quot;&gt;Voir les statistiques globales de ses présences&lt;/span&gt;" style="ellipse;whiteSpace=wrap;html=1;fontSize=7;" parent="2DP7c2VmXSA7MMOB2HrA-80" vertex="1">
          <mxGeometry x="40" y="260" width="109" height="40" as="geometry" />
        </mxCell>
        <mxCell id="2DP7c2VmXSA7MMOB2HrA-112" value="" style="endArrow=classic;dashed=1;html=1;strokeWidth=1;rounded=0;fontSize=6;endFill=1;exitX=1.013;exitY=0.327;exitDx=0;exitDy=0;exitPerimeter=0;entryX=0.45;entryY=1.021;entryDx=0;entryDy=0;entryPerimeter=0;" parent="2DP7c2VmXSA7MMOB2HrA-80" source="2DP7c2VmXSA7MMOB2HrA-110" target="2DP7c2VmXSA7MMOB2HrA-84" edge="1">
          <mxGeometry width="50" height="50" relative="1" as="geometry">
            <mxPoint x="106" y="188" as="sourcePoint" />
            <mxPoint x="273" y="159" as="targetPoint" />
          </mxGeometry>
        </mxCell>
        <mxCell id="2DP7c2VmXSA7MMOB2HrA-113" value="include" style="edgeLabel;html=1;align=center;verticalAlign=middle;resizable=0;points=[];fontSize=8;" parent="2DP7c2VmXSA7MMOB2HrA-112" vertex="1" connectable="0">
          <mxGeometry x="-0.0557" y="1" relative="1" as="geometry">
            <mxPoint y="-1" as="offset" />
          </mxGeometry>
        </mxCell>
        <mxCell id="XsNp5Y0BUyBoJg_DSxsG-1" value="&lt;span style=&quot;font-family: &amp;quot;Times New Roman&amp;quot;, serif; text-align: justify; background-color: transparent; color: light-dark(rgb(0, 0, 0), rgb(255, 255, 255));&quot;&gt;justifier ses absences et retards&lt;/span&gt;" style="ellipse;whiteSpace=wrap;html=1;fontSize=7;" vertex="1" parent="2DP7c2VmXSA7MMOB2HrA-80">
          <mxGeometry x="90" y="110" width="99" height="29.5" as="geometry" />
        </mxCell>
        <mxCell id="XsNp5Y0BUyBoJg_DSxsG-2" value="" style="endArrow=classic;dashed=1;html=1;strokeWidth=1;rounded=0;fontSize=3;endFill=1;exitX=0;exitY=0.678;exitDx=0;exitDy=0;entryX=0.465;entryY=0.001;entryDx=0;entryDy=0;exitPerimeter=0;entryPerimeter=0;" edge="1" parent="2DP7c2VmXSA7MMOB2HrA-80" source="XsNp5Y0BUyBoJg_DSxsG-1" target="2DP7c2VmXSA7MMOB2HrA-83">
          <mxGeometry width="50" height="50" relative="1" as="geometry">
            <mxPoint x="115.5" y="129.5" as="sourcePoint" />
            <mxPoint x="10.5" y="133.5" as="targetPoint" />
          </mxGeometry>
        </mxCell>
        <mxCell id="XsNp5Y0BUyBoJg_DSxsG-3" value="&lt;font style=&quot;font-size: 6px;&quot;&gt;extend&lt;/font&gt;" style="edgeLabel;html=1;align=center;verticalAlign=middle;resizable=0;points=[];" vertex="1" connectable="0" parent="XsNp5Y0BUyBoJg_DSxsG-2">
          <mxGeometry x="-0.0557" y="1" relative="1" as="geometry">
            <mxPoint y="-1" as="offset" />
          </mxGeometry>
        </mxCell>
        <mxCell id="2DP7c2VmXSA7MMOB2HrA-91" value="" style="endArrow=none;html=1;rounded=0;entryX=0.005;entryY=0.709;entryDx=0;entryDy=0;entryPerimeter=0;" parent="1" target="2DP7c2VmXSA7MMOB2HrA-81" edge="1">
          <mxGeometry width="50" height="50" relative="1" as="geometry">
            <mxPoint x="208" y="890" as="sourcePoint" />
            <mxPoint x="298" y="920" as="targetPoint" />
            <Array as="points" />
          </mxGeometry>
        </mxCell>
        <mxCell id="2DP7c2VmXSA7MMOB2HrA-92" value="" style="endArrow=none;html=1;rounded=0;" parent="1" target="2DP7c2VmXSA7MMOB2HrA-82" edge="1">
          <mxGeometry width="50" height="50" relative="1" as="geometry">
            <mxPoint x="205" y="900" as="sourcePoint" />
            <mxPoint x="329" y="910" as="targetPoint" />
            <Array as="points" />
          </mxGeometry>
        </mxCell>
        <mxCell id="2DP7c2VmXSA7MMOB2HrA-93" value="" style="endArrow=none;html=1;rounded=0;entryX=0.014;entryY=0.303;entryDx=0;entryDy=0;entryPerimeter=0;" parent="1" target="2DP7c2VmXSA7MMOB2HrA-83" edge="1">
          <mxGeometry width="50" height="50" relative="1" as="geometry">
            <mxPoint x="217" y="910" as="sourcePoint" />
            <mxPoint x="326.45000000000005" y="969.2400000000001" as="targetPoint" />
            <Array as="points" />
          </mxGeometry>
        </mxCell>
        <mxCell id="2DP7c2VmXSA7MMOB2HrA-107" value="" style="endArrow=none;html=1;rounded=0;" parent="1" target="2DP7c2VmXSA7MMOB2HrA-106" edge="1">
          <mxGeometry width="50" height="50" relative="1" as="geometry">
            <mxPoint x="227" y="930" as="sourcePoint" />
            <mxPoint x="336.45000000000005" y="979.2400000000001" as="targetPoint" />
            <Array as="points" />
          </mxGeometry>
        </mxCell>
        <mxCell id="2DP7c2VmXSA7MMOB2HrA-111" value="" style="endArrow=none;html=1;rounded=0;entryX=0;entryY=0.5;entryDx=0;entryDy=0;" parent="1" target="2DP7c2VmXSA7MMOB2HrA-110" edge="1">
          <mxGeometry width="50" height="50" relative="1" as="geometry">
            <mxPoint x="210" y="930" as="sourcePoint" />
            <mxPoint x="339" y="943" as="targetPoint" />
            <Array as="points" />
          </mxGeometry>
        </mxCell>
      </root>
    </mxGraphModel>
  </diagram>
</mxfile>
